<svg xmlns="http://www.w3.org/2000/svg" width="128" height="128" viewBox="0 0 128 128">
  <defs>
    <linearGradient id="g" x1="0" y1="0" x2="1" y2="1">
      <stop offset="0" stop-color="#6366f1"></stop>
      <stop offset="1" stop-color="#8b5cf6"></stop>
    </linearGradient>
  </defs>
  <rect x="10" y="10" width="108" height="108" rx="28" fill="url(#g)"></rect>
  <path d="M38 64c0-18 13-30 32-30 9 0 16 2 22 6l-10 11c-3-2-7-3-12-3-10 0-17 7-17 16 0 10 7 16 17 16 5 0 9-1 12-3l10 11c-6 4-13 6-22 6-19 0-32-12-32-30z" fill="#07070d" opacity="0.92"></path>
  <circle cx="92" cy="64" r="6" fill="#07070d" opacity="0.92"></circle>
</svg>
